<?xml version="1.0" encoding="UTF-8"?>
<svg
    width="300"
    height="300"
    viewBox="0 0 300 300"
    xmlns="http://www.w3.org/2000/svg"
>
  <!-- 背景（お好みで外せます） -->
  <rect width="100%" height="100%" fill="#fafafa" opacity="0" />

  <!-- グラデーション定義：ヒレや体の淡い色に使用 -->
  <defs>
    <!-- 体のグラデーション -->
    <radialGradient id="bodyGradient" cx="50%" cy="50%" r="50%">
      <stop offset="0%" stop-color="#b2f1f0" />
      <stop offset="100%" stop-color="#8ce0de" />
    </radialGradient>

    <!-- ヒレのグラデーション -->
    <linearGradient id="finGradient" x1="0%" y1="0%" x2="100%" y2="100%">
      <stop offset="0%" stop-color="#f9c3e9" />
      <stop offset="100%" stop-color="#f7a8de" />
    </linearGradient>
  </defs>

  <!-- 魚の体（やや丸みを付けた円～楕円形） -->
  <ellipse
    cx="150"
    cy="150"
    rx="40"
    ry="35"
    fill="url(#bodyGradient)"
    stroke="#73c8c6"
    stroke-width="2"
  />

  <!-- 尾びれ（渦巻き部分）：やや丸みをもたせた曲線 -->
  <path
    d="
      M170,150
      q40,0 20,30
      q-15,20 -35,0
      q-5,-5 -2,-10
      q3,-5 10,-5
      q8,0 5,-10
      q-3,-10 2,-15
      q5,-5 10,-5
    "
    fill="none"
    stroke="#73c8c6"
    stroke-width="2.5"
    stroke-linecap="round"
    stroke-linejoin="round"
  />

  <!-- 背びれ（大きめ＆柔らかな色） -->
  <path
    d="
      M140,110
      c-30,-20 -60,20 -30,50
      c20,20 60,15 60,15
      c-20,-25 -10,-45 -30,-65
    "
    fill="url(#finGradient)"
    stroke="#e7a1d3"
    stroke-width="2"
    stroke-linecap="round"
    stroke-linejoin="round"
    opacity="0.8"
  />

  <!-- 小さめの腹びれ（ちょっと下の方に）-->
  <path
    d="
      M140,170
      c-5,0 -10,10 -5,15
      c5,5 15,5 15,5
      c-5,-10 0,-15 -10,-20
    "
    fill="url(#finGradient)"
    stroke="#e7a1d3"
    stroke-width="2"
    stroke-linecap="round"
    stroke-linejoin="round"
    opacity="0.6"
  />

  <!-- 魚の顔の輪郭を少し強調するために、上部に小さな半円パスを追加 -->
  <path
    d="
      M135,115
      a15,15 0 0,1 30,0
    "
    fill="none"
    stroke="#73c8c6"
    stroke-width="2"
    stroke-linecap="round"
  />

  <!-- 目（白目と黒目、ハイライトを重ねて作る） -->
  <!-- 白目 -->
  <circle
    cx="140"
    cy="140"
    r="5"
    fill="#ffffff"
  />

  <!-- 黒目 -->
  <circle
    cx="140"
    cy="140"
    r="2.5"
    fill="#333"
  />

  <!-- ハイライト(小さな白ドット) -->
  <circle
    cx="141"
    cy="139"
    r="1"
    fill="#ffffff"
  />

  <!-- 口（ちょっとした口角の丸み） -->
  <path
    d="
      M157,148
      q3,3 6,0
    "
    fill="none"
    stroke="#333"
    stroke-width="1.5"
    stroke-linecap="round"
  />
</svg>
